<svg width="64" height="64" viewBox="0 0 64 64" fill="none" xmlns="http://www.w3.org/2000/svg">
  <circle cx="32" cy="32" r="32" fill="#2775CA"/>
  <path d="M41.7 30C41.7 26.6 40.2 24 35.5 24H30V40H35.5C40.2 40 41.7 37.4 41.7 34C41.7 32 40.5 30.7 38.6 30C40.5 29.3 41.7 28 41.7 30ZM33.5 26.7H35C37.5 26.7 38.2 27.9 38.2 30C38.2 32.1 37.5 33.3 35 33.3H33.5V26.7ZM33.5 34.5H35.2C38 34.5 38.6 35.8 38.6 37.3C38.6 38.8 38 40.1 35.2 40.1H33.5V34.5Z" fill="white"/>
  <path d="M29.5 24H23V40H29.5V37.3H26.3V26.7H29.5V24Z" fill="white"/>
</svg>
