<svg width="64" height="64" viewBox="0 0 64 64" fill="none" xmlns="http://www.w3.org/2000/svg">
  <rect width="64" height="64" rx="32" fill="url(#paint0_linear)"/>
  <rect x="1" y="1" width="62" height="62" rx="31" stroke="url(#paint1_linear)" stroke-width="2"/>
  <path d="M43 32C43 38.0751 38.0751 43 32 43C25.9249 43 21 38.0751 21 32C21 25.9249 25.9249 21 32 21C38.0751 21 43 25.9249 43 32ZM32 37.5C35.0376 37.5 37.5 35.0376 37.5 32C37.5 28.9624 35.0376 26.5 32 26.5C28.9624 26.5 26.5 28.9624 26.5 32C26.5 35.0376 28.9624 37.5 32 37.5Z" fill="white"/>
  <path d="M37.5 32H43" stroke="white" stroke-width="2" stroke-linecap="round"/>
  <path d="M21 32H26.5" stroke="white" stroke-width="2" stroke-linecap="round"/>
  <path d="M32 21V26.5" stroke="white" stroke-width="2" stroke-linecap="round"/>
  <path d="M32 37.5V43" stroke="white" stroke-width="2" stroke-linecap="round"/>
  <defs>
    <linearGradient id="paint0_linear" x1="0" y1="0" x2="64" y2="64" gradientUnits="userSpaceOnUse">
      <stop stop-color="#3B82F6"/>
      <stop offset="1" stop-color="#1E3A8A"/>
    </linearGradient>
    <linearGradient id="paint1_linear" x1="0" y1="0" x2="64" y2="64" gradientUnits="userSpaceOnUse">
      <stop stop-color="#60A5FA" stop-opacity="0.5"/>
      <stop offset="1" stop-color="#2563EB" stop-opacity="0"/>
    </linearGradient>
  </defs>
</svg>
